# xmcd
#
# Track frame offsets:
#	150
#	14993
#	28333
#	58846
#	81120
#	98910
#	112733
#	125489
#	140060
#	151382
#	167509
#	179178
#	192987
#	208549
#	220006
#
# Disc length: 3105
#
# Revision: 1
# Processed by: cddbd v1.5.1PL0 Copyright (c) Steve Scherf et al.
# Submitted via: dBpowerAMP V4.0
# Normalized: r0:DSETVAR1,TDELIM( - )
#
DISCID=de0c1f0f
DTITLE=Various Artist - All That Country 3
DYEAR=1900
DGENRE=
TTITLE0=Eric Weissberg and Steve Mandel - Deliverance
TTITLE1=Travis Tritt - Son Of The New South
TTITLE2=Lynyrd Skynyrd - The Last Rebel
TTITLE3=Southern Pacific - Pink Cadillac
TTITLE4=Linda Ronstadt - Blue Bayou
TTITLE5=Dwight Yoakam - Giutars, Cadillacs
TTITLE6=Kevin Welch - I Am No Drifter
TTITLE7=Colin Buchanan - Edge Of The Kimberley
TTITLE8=K.D Lang - Big Big Love
TTITLE9=Nickel Creek - This Side
TTITLE10=Patsy Cline - Walkin' After Midnight
TTITLE11=Rodney Crowell - Careful What You Say
TTITLE12=Randy Travis - High Lonesome
TTITLE13=Sammi Smith - Help Me Make It Through The Night
TTITLE14=John Michael Montgomery - Be My Baby Tonight
EXTD=
EXTT0=
EXTT1=
EXTT2=
EXTT3=
EXTT4=
EXTT5=
EXTT6=
EXTT7=
EXTT8=
EXTT9=
EXTT10=
EXTT11=
EXTT12=
EXTT13=
EXTT14=
PLAYORDER=
